<svg width="24" height="18" viewBox="0 0 24 18" fill="none" xmlns="http://www.w3.org/2000/svg">
<path d="M6.73304 17.4169H2.82782V5.66602H6.73304V17.4169Z" fill="white"/>
<path d="M4.77653 4.06017H4.75148C3.44061 4.06017 2.59305 3.15626 2.59305 2.0293C2.59305 0.877304 3.46644 0 4.80157 0C6.13748 0 6.96079 0.876522 6.98505 2.0293C6.98505 3.15783 6.13748 4.06017 4.77653 4.06017Z" fill="white"/>
<path d="M20.8145 17.4114H16.9093V11.1239C16.9093 9.54462 16.3443 8.46776 14.9293 8.46776C13.8516 8.46776 13.2091 9.19402 12.9266 9.8968C12.8241 10.1472 12.7975 10.4986 12.7975 10.8492V17.4114H8.89304C8.89304 17.4114 8.94469 6.76402 8.89304 5.66054H12.7983V7.32515C13.3171 6.52454 14.2461 5.38428 16.3192 5.38428C18.8885 5.38428 20.8145 7.06454 20.8145 10.6731V17.4114Z" fill="white"/>
</svg>
