<svg width="26" height="21" viewBox="0 0 26 21" fill="none" xmlns="http://www.w3.org/2000/svg">
<path d="M20.3015 5.73453C20.3015 5.81787 20.2851 5.90038 20.2532 5.97736C20.2213 6.05433 20.1745 6.12427 20.1156 6.18315C20.0566 6.24204 19.9866 6.28873 19.9096 6.32054C19.8326 6.35236 19.75 6.36868 19.6667 6.36857H17.1322C16.964 6.36857 16.8027 6.30177 16.6838 6.18287C16.5649 6.06396 16.4981 5.90269 16.4981 5.73453V3.2C16.4981 2.84946 16.7816 2.56596 17.1322 2.56596H19.6667C20.0172 2.56596 20.3007 2.84946 20.3007 3.2L20.3015 5.73453ZM20.3015 17.1416C20.3015 17.5858 20.1117 17.7756 19.6667 17.7756H5.72593C5.2817 17.7756 5.0919 17.5858 5.0919 17.1416V8.26988L6.67093 8.61396C6.4976 9.17733 6.40966 9.76349 6.41005 10.3529C6.41005 13.7226 9.23213 16.4591 12.71 16.4591C16.1912 16.4591 19.0117 13.7242 19.0117 10.3529C19.0117 9.74715 18.9204 9.16561 18.7508 8.61396L20.2999 8.26988V17.1416H20.3015ZM12.7109 6.18846C14.9595 6.18846 16.7816 7.95488 16.7816 10.1332C16.7816 12.3116 14.9595 14.078 12.7109 14.078C10.463 14.078 8.64009 12.31 8.64009 10.1332C8.64009 7.95326 10.463 6.18846 12.7109 6.18846ZM20.3007 0.0322266H5.0927C3.65986 0.0322266 2.55655 1.13553 2.55655 2.56757V17.7756C2.55655 19.2068 3.65986 20.3101 5.0919 20.3101H20.2999C21.7312 20.3101 22.8345 19.2068 22.8345 17.7756V2.56677C22.8361 1.13473 21.7312 0.0322266 20.3015 0.0322266H20.3007Z" fill="white"/>
</svg>
