<svg width="55" height="55" viewBox="0 0 55 55" fill="none" xmlns="http://www.w3.org/2000/svg">
<path fill-rule="evenodd" clip-rule="evenodd" d="M27.5 48.5547C15.8718 48.5547 6.44531 39.1282 6.44531 27.5C6.44531 15.8718 15.8718 6.44531 27.5 6.44531C39.1282 6.44531 48.5547 15.8718 48.5547 27.5C48.5547 39.1282 39.1282 48.5547 27.5 48.5547ZM27.5 47.0508C38.2976 47.0508 47.0508 38.2976 47.0508 27.5C47.0508 16.7024 38.2976 7.94922 27.5 7.94922C16.7024 7.94922 7.94922 16.7024 7.94922 27.5C7.94922 38.2976 16.7024 47.0508 27.5 47.0508Z" fill="#DAD873"/>
<path fill-rule="evenodd" clip-rule="evenodd" d="M11.2069 20.3012C12.108 18.1464 13.4009 16.8938 13.75 16.5395C14.0991 16.1855 14.5948 16.3582 14.9267 16.5395C15.2586 16.7211 23.5791 25.0551 23.9506 25.4736C24.3218 25.8921 24.7154 26.5165 23.6496 26.5165C22.5835 26.5165 12.1108 26.4249 11.2069 26.3626C10.3028 26.3001 10.036 25.7729 10.036 25.3226C10.036 24.8723 10.3056 22.4563 11.2069 20.3012ZM21.2728 11.0301C23.4339 10.1434 24.9745 10.2017 25.4719 10.1982C25.9693 10.1948 26.1974 10.6672 26.304 11.0301C26.4103 11.3932 26.4877 23.2407 26.4544 23.7991C26.4209 24.3577 26.4301 24.9771 25.6764 24.2232C24.9225 23.4695 17.5818 15.9994 16.9869 15.3162C16.3917 14.6328 16.5759 14.0712 16.8945 13.7528C17.2129 13.4344 19.1117 11.917 21.273 11.0301H21.2728ZM34.4839 11.2069C36.6388 12.108 37.8914 13.4009 38.2456 13.75C38.5997 14.0991 38.427 14.5948 38.2456 14.9267C38.0641 15.2586 29.7301 23.5791 29.3116 23.9506C28.8931 24.3218 28.2687 24.7154 28.2687 23.6496C28.2687 22.5835 28.3603 12.1108 28.4226 11.2069C28.4851 10.3028 29.0123 10.036 29.4626 10.036C29.9129 10.036 32.3288 10.3056 34.4839 11.2069ZM43.7551 21.2728C44.6418 23.4339 44.5835 24.9745 44.587 25.4719C44.5904 25.9693 44.118 26.1974 43.7551 26.304C43.392 26.4103 31.5445 26.4877 30.9861 26.4544C30.4275 26.4209 29.8081 26.4301 30.562 25.6764C31.3156 24.9225 38.7858 17.5818 39.469 16.9869C40.1524 16.3917 40.714 16.5759 41.0324 16.8945C41.3508 17.2129 42.8682 19.1117 43.7551 21.273V21.2728ZM43.5783 34.6988C42.6772 36.8537 41.3843 38.1062 41.0352 38.4605C40.6861 38.8146 40.1904 38.6418 39.8585 38.4605C39.5265 38.2789 31.2061 29.9449 30.8346 29.5264C30.4634 29.1079 30.0698 28.4836 31.1356 28.4836C32.2017 28.4836 42.6744 28.5751 43.5783 28.6374C44.4823 28.6999 44.7492 29.2271 44.7492 29.6775C44.7492 30.1278 44.4796 32.5437 43.5783 34.6988ZM33.5124 43.9699C31.3513 44.8566 29.8107 44.7984 29.3133 44.8018C28.8159 44.8053 28.5878 44.3328 28.4812 43.9699C28.3749 43.6069 28.2975 31.7593 28.3308 31.2009C28.3643 30.6423 28.3551 30.0229 29.1088 30.7768C29.8627 31.5305 37.2034 39.0006 37.7983 39.6838C38.3935 40.3672 38.2093 40.9288 37.8907 41.2472C37.5723 41.5656 35.6735 43.0831 33.5122 43.9699H33.5124ZM20.3012 43.7931C18.1464 42.8921 16.8938 41.5991 16.5395 41.25C16.1855 40.9009 16.3582 40.4053 16.5395 40.0733C16.7211 39.7414 25.0551 31.4209 25.4736 31.0495C25.8921 30.6782 26.5165 30.2846 26.5165 31.3504C26.5165 32.4165 26.4249 42.8893 26.3626 43.7931C26.3001 44.6972 25.7729 44.964 25.3226 44.964C24.8723 44.964 22.4563 44.6944 20.3012 43.7931ZM11.0301 33.7273C10.1434 31.5662 10.2017 30.0255 10.1982 29.5281C10.1948 29.0308 10.6672 28.8026 11.0301 28.6961C11.3932 28.5897 23.2407 28.5124 23.7991 28.5457C24.3577 28.5792 24.9771 28.5699 24.2232 29.3236C23.4695 30.0775 15.9994 37.4183 15.3162 38.0132C14.6328 38.6083 14.0712 38.4242 13.7528 38.1056C13.4344 37.7872 11.917 35.8884 11.0301 33.7271V33.7273Z" fill="#DAD873"/>
</svg>
