<svg width="27" height="18" viewBox="0 0 27 18" fill="none" xmlns="http://www.w3.org/2000/svg">
<path d="M23.9267 2.40897C23.8359 2.5608 23.3703 3.09375 22.8725 3.58054C22.0289 4.41793 21.9835 4.50871 21.9835 5.20915C21.9835 6.28915 21.4724 8.54306 20.9606 9.77488C20.0113 12.0891 17.9789 14.4791 15.9457 15.6836C13.0852 17.3724 9.27548 17.7998 6.06757 16.8098C4.99931 16.4732 3.16174 15.621 3.16174 15.4699C3.16174 15.423 3.71818 15.3635 4.39748 15.3471C5.81587 15.3172 7.20378 14.9299 8.43261 14.2209L9.24496 13.7333L8.31131 13.414C6.98557 12.957 5.79679 11.9067 5.49548 10.9175C5.4047 10.5974 5.43522 10.5818 6.27809 10.5818L7.14992 10.5669L6.4127 10.2163C5.53853 9.7741 4.74026 9.02984 4.34974 8.26758C4.06409 7.71975 3.70253 6.33454 3.8074 6.2281C3.8387 6.18271 4.15487 6.27506 4.51487 6.39636C5.5534 6.77749 5.68879 6.68593 5.08696 6.04575C3.95844 4.88828 3.61174 3.16888 4.15331 1.53949L4.40922 0.80932L5.40313 1.79854C7.43713 3.79262 9.83113 4.98062 12.5703 5.32967L13.3231 5.42045L13.2777 4.67384C13.1424 2.7408 14.3319 0.97445 16.2141 0.289668C16.9067 0.0454938 18.0822 0.0157546 18.8499 0.227842C19.1512 0.318624 19.7225 0.623841 20.1295 0.897754L20.8675 1.40019L21.6798 1.14036C22.1322 1.00419 22.734 0.774885 23.0048 0.623059C23.2607 0.48532 23.4861 0.409407 23.4861 0.454798C23.4861 0.713059 22.9289 1.59741 22.4632 2.08419C21.8293 2.76897 22.0109 2.83002 23.2904 2.37375C24.0613 2.11941 24.077 2.11941 23.9267 2.40897Z" fill="white"/>
</svg>
